<?xml version="1.0" encoding="UTF-8"?>
<svg width="49px" height="49px" viewBox="0 0 49 49" version="1.1" xmlns="http://www.w3.org/2000/svg" xmlns:xlink="http://www.w3.org/1999/xlink">
    <title>返回首页--图标</title>
    <g id="页面-1" stroke="none" stroke-width="1" fill="none" fill-rule="evenodd" opacity="0.93922061">
        <g id="医院设备--屏幕" transform="translate(-855.000000, -573.000000)" fill="#30A7AD" fill-rule="nonzero">
            <g id="编组" transform="translate(855.000000, 573.000000)">
                <path d="M43.2120476,24.4677456 C43.7756849,25.0105094 44.0709235,25.6075495 44.0977633,26.258866 C44.1246032,26.9101825 43.9098842,27.4529463 43.4536064,27.8871573 C42.9436489,28.3485064 42.3531717,28.5656119 41.6821749,28.5384738 C41.0111781,28.5113356 40.4743807,28.3213683 40.0717826,27.9685718 C39.9375833,27.8600191 39.5282753,27.4800844 38.8438585,26.8287679 C38.1594418,26.1774514 37.3408257,25.3972285 36.3880103,24.4880992 C35.4351949,23.5789699 34.4152798,22.6019952 33.328265,21.557175 C32.2412502,20.5123547 31.2146251,19.5285954 30.2483897,18.605897 C29.2821544,17.6831987 28.4501184,16.8826221 27.7522817,16.2041674 C27.0544451,15.5257127 26.6115872,15.1050708 26.4237081,14.9422417 C25.5648322,14.1552342 24.7193762,13.7752996 23.8873402,13.8024378 C23.0553042,13.829576 22.2366882,14.2095106 21.431492,14.9422417 C21.1630933,15.1864854 20.6598457,15.6546191 19.9217493,16.3466429 C19.1836528,17.0386667 18.3314869,17.8460278 17.3652515,18.7687262 C16.3990161,19.6914246 15.379101,20.6548302 14.3055062,21.6589432 C13.2319113,22.6630561 12.2388361,23.5993236 11.3262805,24.4677456 C10.4137248,25.3361676 9.6286586,26.0756832 8.97108175,26.6862924 C8.3135049,27.2969017 7.9176168,27.6564827 7.78341745,27.7650354 C7.38081938,28.0906937 6.84402195,28.2670919 6.17302517,28.2942301 C5.50202838,28.3213683 4.92497115,28.1178319 4.44185347,27.6836208 C3.90505604,27.1951335 3.65007726,26.6048779 3.67691713,25.9128541 C3.703757,25.2208303 3.93189591,24.671282 4.36133385,24.2642092 C4.52237308,24.1013801 5.0189107,23.6264618 5.85094671,22.8394543 C6.68298272,22.0524469 7.67605796,21.1161794 8.83017243,20.0306519 C9.98428689,18.9451244 11.2256309,17.7781823 12.5542046,16.5298257 C13.8827782,15.281469 15.1174123,14.114527 16.2581068,13.0289995 C17.3988013,11.9434719 18.3784567,11.013989 19.1970727,10.2405507 C20.0156888,9.46711231 20.4920965,9.01254767 20.6262959,8.87685673 C21.646211,7.87274378 22.7466457,7.36390276 23.9276,7.35033367 C25.1085544,7.33676457 26.1150496,7.73705284 26.9470856,8.55119847 C27.1081248,8.68688941 27.4436232,9.00576312 27.9535807,9.50781959 C28.4635383,10.0098761 29.0875653,10.6204853 29.8256618,11.3396473 C30.5637582,12.0588092 31.3890843,12.8661703 32.3016399,13.7617305 C33.2141955,14.6572907 34.1401711,15.5596355 35.0795666,16.4687648 C36.0189621,17.377894 36.9382277,18.2802388 37.8373634,19.175799 C38.736499,20.0713592 39.5618251,20.8787203 40.3133415,21.5978822 C41.0648579,22.3170442 41.6955949,22.934438 42.2055524,23.4500636 L43.2120476,24.4677456 Z M21.431492,18.5651898 C22.1024888,17.9410114 22.9076849,17.6085686 23.8470804,17.5678614 C24.7864759,17.5271541 25.6319319,17.8595969 26.3834483,18.5651898 C26.4639679,18.6466043 26.7055267,18.8772789 27.1081248,19.2572135 L28.6379975,20.6819684 C29.2284746,21.2518703 29.8927614,21.8896178 30.6308579,22.5952106 C31.3689544,23.3008035 32.1271807,24.0063964 32.905537,24.7119893 C34.7038084,26.3945569 36.7167987,28.280661 38.9445081,30.3703014 L38.9445081,38.1046849 C38.9445081,38.7017251 38.7230791,39.2309197 38.2802212,39.6922689 C37.8373634,40.1536181 37.2401762,40.3978618 36.4886598,40.425 L28.8795563,40.425 L28.8795563,34.1153713 C28.8795563,33.2198111 28.4635383,32.7720311 27.6315023,32.7720311 L19.9418792,32.7720311 C19.4856013,32.7720311 19.1702329,32.907722 18.9957737,33.1791039 C18.8213145,33.4504857 18.7340849,33.7625749 18.7340849,34.1153713 C18.7340849,34.2782005 18.727375,34.6920578 18.713955,35.3569434 C18.7005351,36.021829 18.6938251,36.7342065 18.6938251,37.4940757 L18.6938251,40.425 L11.3262805,40.425 C10.5479242,40.425 9.93060715,40.2486018 9.47432934,39.8958053 C9.01805153,39.5430089 8.78991262,39.0409524 8.78991262,38.3896359 L8.78991262,30.2888869 C10.9907821,28.2535228 12.9903525,26.408126 14.7886239,24.7526966 C15.5401403,24.0471037 16.2916567,23.3482954 17.0431731,22.6562716 C17.7946894,21.9642478 18.4791062,21.3332849 19.0964232,20.763383 C19.7137402,20.193481 20.2304078,19.7117782 20.6464258,19.3182745 C21.0624438,18.9247707 21.3241325,18.6737425 21.431492,18.5651898 L21.431492,18.5651898 Z" id="形状"></path>
            </g>
        </g>
    </g>
</svg>